<?xml version="1.0" standalone="no"?>
<!DOCTYPE svg PUBLIC "-//W3C//DTD SVG 20010904//EN"
 "http://www.w3.org/TR/2001/REC-SVG-20010904/DTD/svg10.dtd">
<svg version="1.0" xmlns="http://www.w3.org/2000/svg"
 width="125.000000pt" height="35.000000pt" viewBox="0 0 125.000000 35.000000"
 preserveAspectRatio="xMidYMid meet">

<g transform="translate(0.000000,35.000000) scale(0.100000,-0.100000)"
fill="#fff" stroke="#fff">
<path d="M13 339 c10 -6 42 -9 71 -7 l53 3 18 -49 17 -50 22 50 21 49 63 0 62
0 0 -107 0 -108 -34 0 c-19 0 -37 -6 -39 -12 -3 -7 -6 25 -7 72 l-1 85 -24
-59 c-14 -33 -25 -71 -25 -85 -1 -23 -2 -24 -11 -8 -15 25 -49 22 -50 -5 -1
-13 -5 -5 -9 17 -5 22 -17 60 -28 85 l-21 45 0 -107 c-1 -72 -5 -108 -12 -108
-7 0 -9 12 -5 35 7 35 7 35 -28 35 l-35 0 -4 113 c-2 91 -3 81 -5 -55 l-2
-168 414 0 c386 0 415 1 419 18 4 16 5 16 6 0 1 -17 18 -18 206 -18 l205 0 0
175 0 175 -627 0 c-447 -1 -623 -4 -610 -11z m601 -15 c40 -19 56 -49 56 -103
0 -50 -30 -88 -80 -101 -22 -6 -41 -18 -43 -28 -4 -14 -6 -13 -12 6 -14 41
-28 24 -23 -28 3 -28 1 -53 -3 -56 -5 -3 -9 20 -9 50 0 45 -3 56 -16 56 -13 0
-15 -7 -9 -40 6 -34 4 -40 -10 -40 -15 0 -17 6 -12 38 6 34 3 40 -28 65 -63
50 -53 151 17 182 45 19 130 19 172 -1z m318 -16 c-4 -25 -8 -28 -43 -28 l-38
0 -3 -82 c-3 -80 -4 -83 -26 -80 -13 2 -30 -2 -38 -8 -12 -11 -14 0 -14 79 l0
91 -37 0 c-35 0 -38 2 -38 28 l0 27 120 0 121 0 -4 -27z m252 16 c40 -19 56
-49 56 -103 0 -50 -30 -88 -80 -101 -22 -6 -41 -18 -43 -28 -4 -14 -6 -13 -12
6 -14 41 -28 24 -23 -28 3 -28 1 -53 -3 -56 -5 -3 -9 20 -9 50 0 45 -3 56 -16
56 -13 0 -15 -7 -9 -40 6 -34 4 -40 -10 -40 -15 0 -17 6 -12 38 6 34 3 40 -28
65 -63 50 -53 151 17 182 45 19 130 19 172 -1z m-347 -256 c-3 -7 -5 -2 -5 12
0 14 2 19 5 13 2 -7 2 -19 0 -25z m20 -30 c-2 -13 -4 -5 -4 17 -1 22 1 32 4
23 2 -10 2 -28 0 -40z m-650 -5 c-3 -10 -5 -2 -5 17 0 19 2 27 5 18 2 -10 2
-26 0 -35z m60 15 c-3 -7 -5 -2 -5 12 0 14 2 19 5 13 2 -7 2 -19 0 -25z m510
10 c-3 -8 -6 -5 -6 6 -1 11 2 17 5 13 3 -3 4 -12 1 -19z"/>
<path d="M510 283 c-63 -22 -45 -113 22 -113 51 0 70 68 28 102 -23 19 -26 20
-50 11z"/>
<path d="M1080 283 c-63 -22 -45 -113 22 -113 51 0 70 68 28 102 -23 19 -26
20 -50 11z"/>
</g>
</svg>
